<svg width="24" height="24" viewBox="0 0 24 24" fill="none" xmlns="http://www.w3.org/2000/svg">
<path fill-rule="evenodd" clip-rule="evenodd" d="M17.0314 2.469C17.1012 2.53867 17.1566 2.62143 17.1944 2.71255C17.2322 2.80367 17.2517 2.90135 17.2517 3C17.2517 3.09865 17.2322 3.19633 17.1944 3.28745C17.1566 3.37857 17.1012 3.46133 17.0314 3.531L8.56086 12L17.0314 20.469C17.1722 20.6098 17.2513 20.8008 17.2513 21C17.2513 21.1992 17.1722 21.3902 17.0314 21.531C16.8905 21.6718 16.6995 21.7509 16.5004 21.7509C16.3012 21.7509 16.1102 21.6718 15.9694 21.531L6.96936 12.531C6.89952 12.4613 6.8441 12.3786 6.80629 12.2874C6.76849 12.1963 6.74902 12.0986 6.74902 12C6.74902 11.9013 6.76849 11.8037 6.80629 11.7125C6.8441 11.6214 6.89952 11.5387 6.96936 11.469L15.9694 2.469C16.039 2.39915 16.1218 2.34374 16.2129 2.30593C16.304 2.26812 16.4017 2.24866 16.5004 2.24866C16.599 2.24866 16.6967 2.26812 16.7878 2.30593C16.8789 2.34374 16.9617 2.39915 17.0314 2.469Z" fill="black"/>
</svg>
