<svg width="24" height="24" viewBox="0 0 24 24" fill="none" xmlns="http://www.w3.org/2000/svg">
<path fill-rule="evenodd" clip-rule="evenodd" d="M6.96936 2.469C7.03903 2.39915 7.1218 2.34374 7.21291 2.30593C7.30403 2.26812 7.40171 2.24866 7.50036 2.24866C7.59901 2.24866 7.6967 2.26812 7.78781 2.30593C7.87893 2.34374 7.9617 2.39915 8.03136 2.469L17.0314 11.469C17.1012 11.5387 17.1566 11.6214 17.1944 11.7125C17.2322 11.8037 17.2517 11.9013 17.2517 12C17.2517 12.0986 17.2322 12.1963 17.1944 12.2874C17.1566 12.3786 17.1012 12.4613 17.0314 12.531L8.03136 21.531C7.89053 21.6718 7.69953 21.7509 7.50036 21.7509C7.3012 21.7509 7.11019 21.6718 6.96936 21.531C6.82853 21.3902 6.74942 21.1992 6.74942 21C6.74942 20.8008 6.82853 20.6098 6.96936 20.469L15.4399 12L6.96936 3.531C6.89952 3.46133 6.8441 3.37857 6.80629 3.28745C6.76849 3.19633 6.74902 3.09865 6.74902 3C6.74902 2.90135 6.76849 2.80367 6.80629 2.71255C6.8441 2.62143 6.89952 2.53867 6.96936 2.469Z" fill="black"/>
</svg>
