<svg width="35" height="35" viewBox="0 0 35 35" fill="none" xmlns="http://www.w3.org/2000/svg">
<g clip-path="url(#clip0_972_910)">
<path d="M34.4955 17.384C34.4955 7.93627 26.8837 0.277771 17.4955 0.277771C8.10296 0.279896 0.491211 7.93627 0.491211 17.3861C0.491211 25.9223 6.70896 32.9985 14.835 34.282V22.3289H10.5212V17.3861H14.8392V13.6143C14.8392 9.32815 17.3786 6.9609 21.261 6.9609C23.1225 6.9609 25.0668 7.29452 25.0668 7.29452V11.502H22.9227C20.8126 11.502 20.1538 12.8216 20.1538 14.1753V17.384H24.8671L24.1148 22.3268H20.1517V34.2799C28.2777 32.9964 34.4955 25.9201 34.4955 17.384Z" fill="#454545"/>
</g>
<defs>
<clipPath id="clip0_972_910">
<rect width="34" height="34" fill="white" transform="translate(0.5 0.282104)"/>
</clipPath>
</defs>
</svg>
