<svg width="35" height="35" viewBox="0 0 35 35" fill="none" xmlns="http://www.w3.org/2000/svg">
<g clip-path="url(#clip0_972_912)">
<path d="M17.5 0.282104C12.8866 0.282104 12.3065 0.303354 10.4939 0.384104C8.68125 0.469104 7.44662 0.753854 6.365 1.1746C5.23045 1.60135 4.20279 2.27074 3.35388 3.13598C2.48916 3.98533 1.81985 5.01286 1.3925 6.1471C0.97175 7.2266 0.684875 8.46335 0.602 10.2696C0.52125 12.0865 0.5 12.6645 0.5 17.2842C0.5 21.8997 0.52125 22.4777 0.602 24.2904C0.687 26.1009 0.97175 27.3355 1.3925 28.4171C1.82812 29.5349 2.40825 30.4826 3.35388 31.4282C4.29738 32.3739 5.24513 32.9561 6.36287 33.3896C7.44663 33.8104 8.67913 34.0972 10.4896 34.1801C12.3044 34.2609 12.8824 34.2821 17.5 34.2821C22.1176 34.2821 22.6935 34.2609 24.5083 34.1801C26.3166 34.0951 27.5555 33.8104 28.6371 33.3896C29.7709 32.9627 30.7979 32.2933 31.6461 31.4282C32.5917 30.4826 33.1719 29.5349 33.6075 28.4171C34.0261 27.3355 34.313 26.1009 34.398 24.2904C34.4787 22.4777 34.5 21.8997 34.5 17.2821C34.5 12.6645 34.4787 12.0865 34.398 10.2717C34.313 8.46336 34.0261 7.2266 33.6075 6.1471C33.1802 5.01283 32.5109 3.98529 31.6461 3.13598C30.7975 2.27042 29.7697 1.60098 28.635 1.1746C27.5513 0.753854 26.3145 0.466979 24.5061 0.384104C22.6914 0.303354 22.1155 0.282104 17.4958 0.282104H17.5021H17.5ZM15.9764 3.34635H17.5021C22.0411 3.34635 22.5787 3.36123 24.3701 3.4441C26.0276 3.51848 26.9286 3.79685 27.5279 4.02848C28.3205 4.3366 28.8879 4.70635 29.4829 5.30135C30.0779 5.89635 30.4455 6.4616 30.7536 7.25635C30.9874 7.85348 31.2636 8.75448 31.338 10.412C31.4209 12.2034 31.4379 12.741 31.4379 17.2779C31.4379 21.8147 31.4209 22.3545 31.338 24.1459C31.2636 25.8034 30.9853 26.7022 30.7536 27.3015C30.4811 28.0396 30.0461 28.707 29.4807 29.2544C28.8857 29.8494 28.3205 30.217 27.5258 30.5251C26.9308 30.7589 26.0297 31.0351 24.3701 31.1116C22.5787 31.1924 22.0411 31.2115 17.5021 31.2115C12.9631 31.2115 12.4234 31.1924 10.632 31.1116C8.9745 31.0351 8.07562 30.7589 7.47638 30.5251C6.73794 30.2529 6.06989 29.8187 5.52137 29.2544C4.9556 28.7062 4.51991 28.0381 4.24638 27.2994C4.01475 26.7022 3.73638 25.8012 3.662 24.1437C3.58125 22.3524 3.56425 21.8147 3.56425 17.2736C3.56425 12.7346 3.58125 12.1991 3.662 10.4077C3.7385 8.75023 4.01475 7.84923 4.2485 7.24998C4.55662 6.45735 4.92637 5.88998 5.52137 5.29498C6.11637 4.69998 6.68162 4.33235 7.47638 4.02423C8.07562 3.79048 8.9745 3.51423 10.632 3.43773C12.2003 3.36548 12.808 3.34423 15.9764 3.3421V3.34635ZM26.5759 6.16835C26.308 6.16835 26.0427 6.22112 25.7952 6.32364C25.5477 6.42616 25.3228 6.57643 25.1334 6.76586C24.9439 6.95529 24.7937 7.18018 24.6912 7.42768C24.5886 7.67518 24.5359 7.94046 24.5359 8.20835C24.5359 8.47625 24.5886 8.74152 24.6912 8.98903C24.7937 9.23653 24.9439 9.46142 25.1334 9.65085C25.3228 9.84028 25.5477 9.99055 25.7952 10.0931C26.0427 10.1956 26.308 10.2484 26.5759 10.2484C27.1169 10.2484 27.6358 10.0334 28.0184 9.65085C28.4009 9.26828 28.6159 8.7494 28.6159 8.20835C28.6159 7.66731 28.4009 7.14843 28.0184 6.76586C27.6358 6.38328 27.1169 6.16835 26.5759 6.16835ZM17.5021 8.5526C16.3442 8.53454 15.1941 8.74701 14.1191 9.17765C13.044 9.6083 12.0653 10.2485 11.2401 11.061C10.4148 11.8735 9.7594 12.8421 9.31204 13.9103C8.86468 14.9785 8.63429 16.1251 8.63429 17.2832C8.63429 18.4413 8.86468 19.5878 9.31204 20.6561C9.7594 21.7243 10.4148 22.6928 11.2401 23.5053C12.0653 24.3178 13.044 24.958 14.1191 25.3887C15.1941 25.8193 16.3442 26.0318 17.5021 26.0137C19.794 25.978 21.98 25.0424 23.5881 23.409C25.1962 21.7756 26.0975 19.5753 26.0975 17.2832C26.0975 14.991 25.1962 12.7907 23.5881 11.1573C21.98 9.52391 19.794 8.58836 17.5021 8.5526ZM17.5021 11.6147C19.0052 11.6147 20.4467 12.2118 21.5096 13.2747C22.5724 14.3375 23.1695 15.779 23.1695 17.2821C23.1695 18.7852 22.5724 20.2267 21.5096 21.2895C20.4467 22.3524 19.0052 22.9495 17.5021 22.9495C15.999 22.9495 14.5575 22.3524 13.4947 21.2895C12.4318 20.2267 11.8348 18.7852 11.8348 17.2821C11.8348 15.779 12.4318 14.3375 13.4947 13.2747C14.5575 12.2118 15.999 11.6147 17.5021 11.6147Z" fill="#454545"/>
</g>
<defs>
<clipPath id="clip0_972_912">
<rect width="34" height="34" fill="white" transform="translate(0.5 0.282104)"/>
</clipPath>
</defs>
</svg>
