<svg width="237" height="45" viewBox="0 0 237 45" fill="none" xmlns="http://www.w3.org/2000/svg">
<g clip-path="url(#clip0_972_1204)">
<path d="M185.774 15.9116L156.697 28.726L185.94 22.9572L236.141 36.7645L185.774 15.9116Z" fill="white"/>
<path d="M216.144 25.2741L185.664 0L147.727 27.4965H0V28.7259H149.012L185.522 11.7662L216.144 25.2741Z" fill="#98002E"/>
<path d="M26.6414 37.781C27.1301 37.6628 27.5873 37.4579 27.9893 37.182C28.3913 36.9062 28.7302 36.5358 28.9903 36.0945C29.2504 35.6452 29.3765 35.0778 29.3765 34.4001C29.3765 33.675 29.2425 33.0682 28.9667 32.6111C28.6987 32.1461 28.344 31.7836 27.9105 31.5156C27.4848 31.2556 27.004 31.0743 26.4602 30.9797C25.9321 30.8852 25.3961 30.8379 24.8837 30.8379H20.9111V45.0078H21.5811V37.9859H24.663L28.8406 44.9526L28.8721 45.0078H29.6367L25.4039 37.9622C25.8059 37.9465 26.2158 37.8913 26.6336 37.7889L26.6414 37.781ZM21.589 37.3712V31.4526H24.6551C25.1675 31.4526 25.6798 31.4999 26.1764 31.5866C26.6651 31.6733 27.0986 31.8309 27.4769 32.0515C27.8474 32.2722 28.1469 32.5717 28.3676 32.9579C28.5883 33.3361 28.7066 33.8248 28.7066 34.4001C28.7066 35.3379 28.3834 36.0787 27.7371 36.591C27.0907 37.1111 26.1212 37.3712 24.868 37.3712H21.5811H21.589Z" fill="white"/>
<path d="M41.1446 37.978H48.3883V37.3475H41.1446V31.4684H48.8376V30.8379H40.4746V44.9999H49.1528V44.3773H41.1446V37.978Z" fill="white"/>
<path d="M65.0117 30.8379H64.3023L58.1621 45.0078H58.8951L60.6056 41.0121H68.535L70.1902 45.0078H70.9154L65.0432 30.9167L65.0117 30.8458V30.8379ZM60.8578 40.3974L64.6333 31.5314L68.2985 40.3974H60.8657H60.8578Z" fill="white"/>
<path d="M81.6036 30.8379H80.9336V44.9999H88.532V44.3773H81.6036V30.8379Z" fill="white"/>
<path d="M94.9795 31.4684H99.7245V44.9999H100.395V31.4684H105.14V30.8379H94.9795V31.4684Z" fill="white"/>
<path d="M118.319 38.1277L113.913 30.8931L113.881 30.8379H113.093L117.964 38.8213V44.9999H118.634V38.8213L123.513 30.8379H122.741L118.319 38.1277Z" fill="white"/>
<path d="M3.14525 10.2926H3.20043L8.62333 24.8408H10.8776L16.3715 10.2926H16.4266V24.8408H19.6268V6.73047H14.5586L9.90024 19.6H9.82142L5.11578 6.73047H0.0791016V24.8408H3.14525V10.2926Z" fill="white"/>
<path d="M27.3986 6.73047H24.1748V24.8408H27.3986V6.73047Z" fill="white"/>
<path d="M35.1779 15.762H35.2567L43.2098 24.8408H47.7341L38.7091 15.1L47.1745 6.73047H42.8236L35.2567 14.5641H35.1779V6.73047H31.9541V24.8408H35.1779V15.762Z" fill="white"/>
<path d="M62.6003 21.98H53.3625V16.8653H61.6781V14.1543H53.3625V9.54395H62.1353V6.73047H50.1387V24.8408H62.6003V21.98Z" fill="white"/>
<path d="M76.4884 15.762H76.5673L84.5203 24.8408H89.0526L80.0196 15.1L88.485 6.73047H84.142L76.5673 14.5641H76.4884V6.73047H73.2646V24.8408H76.4884V15.762Z" fill="white"/>
<path d="M92.4891 22.6263C93.3482 23.4696 94.3729 24.1237 95.5552 24.5966C96.7375 25.0615 98.0302 25.298 99.4332 25.298C100.836 25.298 102.153 25.0615 103.351 24.5966C104.541 24.1316 105.573 23.4696 106.448 22.6263C107.315 21.7831 107.993 20.7743 108.482 19.6079C108.971 18.4416 109.215 17.1491 109.215 15.7305C109.215 14.312 108.971 12.9722 108.482 11.8058C107.993 10.6395 107.315 9.64647 106.448 8.82685C105.581 8.00724 104.549 7.37677 103.351 6.93543C102.153 6.4941 100.852 6.27344 99.4332 6.27344C98.0145 6.27344 96.7454 6.4941 95.5552 6.93543C94.3729 7.37677 93.3482 8.00724 92.4891 8.82685C91.6299 9.64647 90.9521 10.6395 90.4712 11.8058C89.9826 12.9722 89.7461 14.2804 89.7461 15.7305C89.7461 17.1806 89.9904 18.4337 90.4712 19.6079C90.9599 20.7743 91.6299 21.7831 92.4891 22.6263ZM93.695 13.1219C93.9946 12.3181 94.4123 11.6246 94.9641 11.0256C95.5079 10.4267 96.1621 9.9617 96.9188 9.61494C97.6755 9.27606 98.5268 9.10268 99.4648 9.10268C100.403 9.10268 101.254 9.27606 102.026 9.61494C102.791 9.95382 103.453 10.4267 103.997 11.0256C104.541 11.6246 104.966 12.3181 105.266 13.1219C105.566 13.9258 105.715 14.7927 105.715 15.7305C105.715 16.6684 105.566 17.5904 105.266 18.4022C104.966 19.2139 104.541 19.9153 103.989 20.5142C103.437 21.1132 102.775 21.5782 102.003 21.9092C101.238 22.2402 100.395 22.4057 99.4726 22.4057C98.5504 22.4057 97.7149 22.2402 96.9504 21.9092C96.1937 21.5782 95.5316 21.1132 94.9798 20.5142C94.4281 19.9153 94.0024 19.2139 93.7029 18.4022C93.4034 17.5904 93.2536 16.6999 93.2536 15.7305C93.2536 14.7612 93.4034 13.9258 93.7029 13.1219H93.695Z" fill="white"/>
<path d="M125.349 21.98H116.111V16.8653H124.427V14.1543H116.111V9.54395H124.892V6.73047H112.896V24.8408H125.349V21.98Z" fill="white"/>
<path d="M132.278 10.8522H132.334L140.925 24.8408H145.024V6.73047H141.8V20.2935H141.745L133.335 6.73047H129.062V24.8408H132.278V10.8522Z" fill="white"/>
</g>
<defs>
<clipPath id="clip0_972_1204">
<rect width="236.141" height="45" fill="white"/>
</clipPath>
</defs>
</svg>
