<svg width="500" height="96" viewBox="0 0 500 96" fill="none" xmlns="http://www.w3.org/2000/svg">
<g clip-path="url(#clip0_972_881)">
<path d="M393.355 33.6908L331.787 60.8237L393.705 48.6089L500 77.8443L393.355 33.6908Z" fill="#231F20"/>
<path d="M457.659 53.5148L393.121 0L312.794 58.2205H0V60.8237H315.515L392.82 24.9135L457.659 53.5148Z" fill="#98002E"/>
<path d="M56.4106 79.9969C57.4453 79.7466 58.4133 79.3128 59.2645 78.7287C60.1157 78.1447 60.8333 77.3604 61.3841 76.4259C61.9348 75.4748 62.2018 74.2733 62.2018 72.8382C62.2018 71.3031 61.9181 70.0182 61.334 69.0503C60.7665 68.0658 60.0155 67.2982 59.0976 66.7308C58.1964 66.1802 57.1783 65.7964 56.0267 65.5961C54.9085 65.3959 53.7737 65.2958 52.6888 65.2958H44.2773V95.2988H45.6959V80.4308H52.2215L61.067 95.182L61.1337 95.2988H62.7526L53.7903 80.3807C54.6415 80.3473 55.5094 80.2305 56.3939 80.0136L56.4106 79.9969ZM45.7126 79.1292V66.5974H52.2048C53.2897 66.5974 54.3745 66.6975 55.4259 66.881C56.4607 67.0646 57.3786 67.3983 58.1797 67.8656C58.9641 68.3328 59.5983 68.9669 60.0656 69.7845C60.5329 70.5855 60.7832 71.6201 60.7832 72.8382C60.7832 74.824 60.099 76.3926 58.7304 77.4772C57.3619 78.5785 55.3091 79.1292 52.6555 79.1292H45.6959H45.7126Z" fill="#231F20"/>
<path d="M87.1188 80.4141H102.456V79.0791H87.1188V66.6307H103.408V65.2958H85.7002V95.2821H104.075V93.9638H87.1188V80.4141Z" fill="#231F20"/>
<path d="M137.655 65.2958H136.152L123.151 95.2988H124.703L128.325 86.8385H145.115L148.62 95.2988H150.155L137.721 65.4626L137.655 65.3125V65.2958ZM128.859 85.537L136.853 66.7642L144.614 85.537H128.876H128.859Z" fill="#231F20"/>
<path d="M172.786 65.2958H171.367V95.2821H187.456V93.9638H172.786V65.2958Z" fill="#231F20"/>
<path d="M201.108 66.6307H211.155V95.2821H212.574V66.6307H222.621V65.2958H201.108V66.6307Z" fill="#231F20"/>
<path d="M250.526 80.7311L241.197 65.4126L241.13 65.2958H239.461L249.775 82.1996V95.2821H251.194V82.1996L261.524 65.2958H259.889L250.526 80.7311Z" fill="#231F20"/>
<path d="M6.6592 21.7931H6.77603L18.2584 52.5971H23.0316L34.6641 21.7931H34.781V52.5971H41.5569V14.2506H30.8256L20.9621 41.5003H20.7952L10.8316 14.2506H0.166992V52.5971H6.6592V21.7931Z" fill="#231F20"/>
<path d="M58.0125 14.2506H51.1865V52.5971H58.0125V14.2506Z" fill="#231F20"/>
<path d="M74.4852 33.3738H74.6521L91.4917 52.5971H101.072L81.9621 31.9721L99.8866 14.2506H90.674L74.6521 30.8374H74.4852V14.2506H67.6592V52.5971H74.4852V33.3738Z" fill="#231F20"/>
<path d="M132.548 46.5397H112.988V35.7099H130.595V29.9697H112.988V20.2078H131.563V14.2506H106.162V52.5971H132.548V46.5397Z" fill="#231F20"/>
<path d="M161.955 33.3738H162.122L178.962 52.5971H188.558L169.432 31.9721L187.356 14.2506H178.16L162.122 30.8374H161.955V14.2506H155.129V52.5971H161.955V33.3738Z" fill="#231F20"/>
<path d="M195.834 47.9081C197.653 49.6936 199.823 51.0786 202.327 52.0798C204.83 53.0643 207.567 53.5649 210.538 53.5649C213.508 53.5649 216.296 53.0643 218.832 52.0798C221.352 51.0953 223.539 49.6936 225.391 47.9081C227.227 46.1226 228.663 43.9866 229.697 41.517C230.732 39.0473 231.249 36.3107 231.249 33.307C231.249 30.3034 230.732 27.4666 229.697 24.997C228.663 22.5273 227.227 20.4248 225.391 18.6893C223.556 16.9539 221.369 15.6189 218.832 14.6845C216.296 13.75 213.542 13.2828 210.538 13.2828C207.534 13.2828 204.847 13.75 202.327 14.6845C199.823 15.6189 197.653 16.9539 195.834 18.6893C194.015 20.4248 192.58 22.5273 191.562 24.997C190.527 27.4666 190.026 30.2367 190.026 33.307C190.026 36.3774 190.544 39.0306 191.562 41.517C192.597 43.9866 194.015 46.1226 195.834 47.9081ZM198.388 27.7837C199.022 26.0816 199.907 24.6132 201.075 23.345C202.226 22.0768 203.612 21.0922 205.214 20.358C206.816 19.6405 208.618 19.2734 210.604 19.2734C212.591 19.2734 214.393 19.6405 216.029 20.358C217.647 21.0756 219.049 22.0768 220.201 23.345C221.353 24.6132 222.254 26.0816 222.888 27.7837C223.522 29.4857 223.839 31.3213 223.839 33.307C223.839 35.2928 223.522 37.2451 222.888 38.9639C222.254 40.6826 221.352 42.1678 220.184 43.436C219.016 44.7042 217.614 45.6887 215.979 46.3896C214.36 47.0904 212.574 47.4408 210.621 47.4408C208.669 47.4408 206.899 47.0904 205.281 46.3896C203.678 45.6887 202.276 44.7042 201.108 43.436C199.94 42.1678 199.039 40.6826 198.404 38.9639C197.77 37.2451 197.453 35.3595 197.453 33.307C197.453 31.2545 197.77 29.4857 198.404 27.7837H198.388Z" fill="#231F20"/>
<path d="M265.412 46.5397H245.852V35.7099H263.46V29.9697H245.852V20.2078H264.444V14.2506H239.043V52.5971H265.412V46.5397Z" fill="#231F20"/>
<path d="M280.083 22.9779H280.2L298.391 52.5971H307.07V14.2506H300.244V42.9687H300.127L282.319 14.2506H273.273V52.5971H280.083V22.9779Z" fill="#231F20"/>
</g>
<defs>
<clipPath id="clip0_972_881">
<rect width="500" height="95.2821" fill="white"/>
</clipPath>
</defs>
</svg>
