<svg width="35" height="35" viewBox="0 0 35 35" fill="none" xmlns="http://www.w3.org/2000/svg">
<g clip-path="url(#clip0_972_914)">
<path d="M17.5001 0.282108C13.5363 0.279594 9.69625 1.66224 6.64389 4.19099C3.59153 6.71973 1.51875 10.2356 0.783947 14.1307C0.0491478 18.0257 0.698524 22.0551 2.6198 25.5221C4.54107 28.9892 7.61345 31.6758 11.3057 33.1176C11.1569 31.7725 11.0209 29.7049 11.3631 28.2365C11.6733 26.9084 13.3563 19.7854 13.3563 19.7854C13.3563 19.7854 12.8484 18.7675 12.8484 17.263C12.8484 14.8979 14.2191 13.1341 15.9255 13.1341C17.3747 13.1341 18.076 14.2221 18.076 15.529C18.076 16.9867 17.1473 19.167 16.6671 21.1879C16.2676 22.8794 17.5171 24.2606 19.1852 24.2606C22.207 24.2606 24.5296 21.0731 24.5296 16.4746C24.5296 12.4052 21.6035 9.55986 17.4278 9.55986C12.5913 9.55986 9.75232 13.1872 9.75232 16.9357C9.75232 18.3977 10.3154 19.9639 11.0167 20.816C11.0771 20.8802 11.1198 20.959 11.1406 21.0447C11.1615 21.1303 11.1598 21.2199 11.1357 21.3047C11.0061 21.8402 10.7192 22.9962 10.6639 23.2321C10.5896 23.5424 10.4174 23.6082 10.0944 23.4595C7.96945 22.4714 6.64345 19.3667 6.64345 16.872C6.64345 11.5106 10.5407 6.58698 17.8762 6.58698C23.7731 6.58698 28.3567 10.7881 28.3567 16.4045C28.3567 22.2631 24.6613 26.9785 19.5358 26.9785C17.8125 26.9785 16.1932 26.0839 15.6386 25.0256L14.5803 29.0674C14.1957 30.5442 13.1587 32.3951 12.466 33.5235C14.8034 34.2462 17.2693 34.4559 19.6952 34.1382C22.1211 33.8205 24.4499 32.9829 26.5224 31.6826C28.5949 30.3823 30.3623 28.6501 31.7039 26.6041C33.0455 24.5581 33.9297 22.2466 34.296 19.8276C34.6624 17.4085 34.5022 14.9389 33.8266 12.5875C33.1509 10.236 31.9757 8.05804 30.3811 6.20243C28.7865 4.34682 26.8102 2.85726 24.5872 1.83551C22.3641 0.813762 19.9467 0.283894 17.5001 0.282108Z" fill="#454545"/>
</g>
<defs>
<clipPath id="clip0_972_914">
<rect width="34" height="34" fill="white" transform="translate(0.5 0.282104)"/>
</clipPath>
</defs>
</svg>
