<svg width="15" height="15" viewBox="0 0 15 15" fill="none" xmlns="http://www.w3.org/2000/svg">
<g clip-path="url(#clip0_972_1258)">
<path fill-rule="evenodd" clip-rule="evenodd" d="M9.70692 9.63651C9.78819 9.55515 9.88469 9.49062 9.99091 9.44658C10.0971 9.40255 10.211 9.37988 10.326 9.37988C10.441 9.37988 10.5548 9.40255 10.6611 9.44658C10.7673 9.49062 10.8638 9.55515 10.945 9.63651L14.3138 13.0053C14.478 13.1693 14.5703 13.3919 14.5704 13.624C14.5704 13.8561 14.4783 14.0788 14.3142 14.2429C14.1502 14.4071 13.9276 14.4994 13.6955 14.4995C13.4634 14.4996 13.2407 14.4075 13.0765 14.2434L9.7078 10.8746C9.62644 10.7934 9.5619 10.6969 9.51787 10.5906C9.47384 10.4844 9.45117 10.3706 9.45117 10.2556C9.45117 10.1406 9.47384 10.0267 9.51787 9.9205C9.5619 9.81428 9.62644 9.71777 9.7078 9.63651H9.70692Z" fill="white"/>
<path fill-rule="evenodd" clip-rule="evenodd" d="M6.25781 11C6.8898 11 7.5156 10.8755 8.09948 10.6337C8.68336 10.3918 9.21388 10.0373 9.66076 9.59045C10.1076 9.14357 10.4621 8.61304 10.704 8.02916C10.9458 7.44528 11.0703 6.81949 11.0703 6.1875C11.0703 5.55551 10.9458 4.92972 10.704 4.34584C10.4621 3.76196 10.1076 3.23143 9.66076 2.78455C9.21388 2.33767 8.68336 1.98318 8.09948 1.74133C7.5156 1.49948 6.8898 1.375 6.25781 1.375C4.98146 1.375 3.75738 1.88203 2.85486 2.78455C1.95234 3.68707 1.44531 4.91115 1.44531 6.1875C1.44531 7.46385 1.95234 8.68793 2.85486 9.59045C3.75738 10.493 4.98146 11 6.25781 11ZM11.9453 6.1875C11.9453 7.69592 11.3461 9.14256 10.2795 10.2092C9.21287 11.2758 7.76623 11.875 6.25781 11.875C4.74939 11.875 3.30276 11.2758 2.23614 10.2092C1.16953 9.14256 0.570313 7.69592 0.570312 6.1875C0.570313 4.67908 1.16953 3.23244 2.23614 2.16583C3.30276 1.09922 4.74939 0.5 6.25781 0.5C7.76623 0.5 9.21287 1.09922 10.2795 2.16583C11.3461 3.23244 11.9453 4.67908 11.9453 6.1875Z" fill="white"/>
</g>
<defs>
<clipPath id="clip0_972_1258">
<rect width="14" height="14" fill="white" transform="translate(0.570312 0.5)"/>
</clipPath>
</defs>
</svg>
