<svg width="35" height="35" viewBox="0 0 35 35" fill="none" xmlns="http://www.w3.org/2000/svg">
<g clip-path="url(#clip0_972_916)">
<path d="M19.625 0.282104H23.8325C24.1385 1.80148 24.98 3.71823 26.4569 5.62011C27.9019 7.48373 29.8186 8.78211 32.375 8.78211V13.0321C28.6499 13.0321 25.8513 11.3024 23.875 9.14548V23.6571C23.875 25.7585 23.2519 27.8128 22.0844 29.56C20.9169 31.3073 19.2575 32.6692 17.316 33.4733C15.3746 34.2775 13.2382 34.4879 11.1772 34.078C9.11612 33.668 7.22293 32.6561 5.737 31.1701C4.25106 29.6842 3.23913 27.791 2.82916 25.7299C2.41919 23.6689 2.6296 21.5326 3.43379 19.5911C4.23797 17.6496 5.5998 15.9902 7.34707 14.8227C9.09435 13.6553 11.1486 13.0321 13.25 13.0321V17.2821C11.9892 17.2821 10.7566 17.656 9.70825 18.3565C8.65988 19.057 7.84278 20.0526 7.36027 21.2175C6.87777 22.3824 6.75152 23.6642 6.9975 24.9008C7.24348 26.1374 7.85064 27.2734 8.7422 28.1649C9.63376 29.0565 10.7697 29.6636 12.0063 29.9096C13.2429 30.1556 14.5247 30.0294 15.6896 29.5468C16.8545 29.0643 17.8501 28.2472 18.5506 27.1989C19.2511 26.1505 19.625 24.918 19.625 23.6571V0.282104Z" fill="#454545"/>
</g>
<defs>
<clipPath id="clip0_972_916">
<rect width="34" height="34" fill="white" transform="translate(0.5 0.282104)"/>
</clipPath>
</defs>
</svg>
