<svg width="35" height="35" viewBox="0 0 35 35" fill="none" xmlns="http://www.w3.org/2000/svg">
<g clip-path="url(#clip0_972_918)">
<path d="M17.6084 4.52997H17.7975C19.5443 4.53634 28.3949 4.60009 30.7813 5.24184C31.5027 5.4377 32.1601 5.81947 32.6877 6.34899C33.2154 6.8785 33.5948 7.53723 33.7881 8.25934C34.0028 9.06684 34.1536 10.1357 34.2556 11.2386L34.2769 11.4596L34.3236 12.0121L34.3406 12.2331C34.4788 14.1753 34.4958 15.9943 34.4979 16.3917V16.5511C34.4958 16.9633 34.4766 18.9056 34.3236 20.9286L34.3066 21.1517L34.2875 21.3727C34.1813 22.5882 34.024 23.7952 33.7881 24.6835C33.5954 25.4059 33.2162 26.0649 32.6884 26.5945C32.1607 27.1241 31.503 27.5057 30.7813 27.701C28.3163 28.364 18.9471 28.4107 17.6488 28.4128H17.347C16.6904 28.4128 13.9746 28.4001 11.1271 28.3023L10.7659 28.2896L10.581 28.2811L10.2176 28.2662L9.85425 28.2513C7.4955 28.1472 5.24938 27.9793 4.2145 27.6988C3.49304 27.5038 2.83551 27.1225 2.30779 26.5933C1.78007 26.0641 1.40067 25.4055 1.20763 24.6835C0.97175 23.7973 0.8145 22.5882 0.70825 21.3727L0.69125 21.1496L0.67425 20.9286C0.569376 19.4887 0.511262 18.0458 0.5 16.6021L0.5 16.3407C0.50425 15.8838 0.52125 14.305 0.636 12.5625L0.650875 12.3436L0.65725 12.2331L0.67425 12.0121L0.721 11.4596L0.74225 11.2386C0.84425 10.1357 0.995125 9.06472 1.20975 8.25934C1.40247 7.53694 1.78172 6.8779 2.30947 6.34829C2.83721 5.81868 3.49491 5.43711 4.21663 5.24184C5.2515 4.96559 7.49763 4.79559 9.85638 4.68934L10.2176 4.67447L10.5831 4.66172L10.7659 4.65534L11.1293 4.64047C13.1516 4.57539 15.1748 4.53926 17.1983 4.53209H17.6084V4.52997ZM14.1 11.3512V21.5895L22.9336 16.4725L14.1 11.3512Z" fill="#454545"/>
</g>
<defs>
<clipPath id="clip0_972_918">
<rect width="34" height="34" fill="white" transform="translate(0.5 0.282104)"/>
</clipPath>
</defs>
</svg>
