<svg width="44" height="44" viewBox="0 0 44 44" fill="none" xmlns="http://www.w3.org/2000/svg">
<g id="Arrow right" filter="url(#filter0_d_0_2236)">
<path id="Vector" fill-rule="evenodd" clip-rule="evenodd" d="M27.9015 12.7765C28.0292 12.6485 28.181 12.5469 28.348 12.4776C28.5151 12.4082 28.6942 12.3726 28.875 12.3726C29.0559 12.3726 29.235 12.4082 29.402 12.4776C29.5691 12.5469 29.7208 12.6485 29.8485 12.7765L38.0985 21.0265C38.2266 21.1542 38.3282 21.306 38.3975 21.473C38.4668 21.6401 38.5025 21.8192 38.5025 22C38.5025 22.1809 38.4668 22.36 38.3975 22.527C38.3282 22.6941 38.2266 22.8458 38.0985 22.9735L29.8485 31.2235C29.5903 31.4817 29.2401 31.6268 28.875 31.6268C28.5099 31.6268 28.1597 31.4817 27.9015 31.2235C27.6433 30.9653 27.4983 30.6151 27.4983 30.25C27.4983 29.8849 27.6433 29.5347 27.9015 29.2765L35.1808 22L27.9015 14.7235C27.7735 14.5958 27.6719 14.4441 27.6026 14.277C27.5332 14.11 27.4976 13.9309 27.4976 13.75C27.4976 13.5692 27.5332 13.3901 27.6026 13.223C27.6719 13.056 27.7735 12.9042 27.9015 12.7765Z" fill="white"/>
<path id="Vector_2" fill-rule="evenodd" clip-rule="evenodd" d="M5.5 22C5.5 21.6353 5.64487 21.2856 5.90273 21.0277C6.16059 20.7699 6.51033 20.625 6.875 20.625H35.75C36.1147 20.625 36.4644 20.7699 36.7223 21.0277C36.9801 21.2856 37.125 21.6353 37.125 22C37.125 22.3647 36.9801 22.7144 36.7223 22.9723C36.4644 23.2301 36.1147 23.375 35.75 23.375H6.875C6.51033 23.375 6.16059 23.2301 5.90273 22.9723C5.64487 22.7144 5.5 22.3647 5.5 22Z" fill="white"/>
</g>
<defs>
<filter id="filter0_d_0_2236" x="0" y="0" width="44" height="45" filterUnits="userSpaceOnUse" color-interpolation-filters="sRGB">
<feFlood flood-opacity="0" result="BackgroundImageFix"/>
<feColorMatrix in="SourceAlpha" type="matrix" values="0 0 0 0 0 0 0 0 0 0 0 0 0 0 0 0 0 0 127 0" result="hardAlpha"/>
<feOffset dy="1"/>
<feColorMatrix type="matrix" values="0 0 0 0 0 0 0 0 0 0 0 0 0 0 0 0 0 0 0.16 0"/>
<feBlend mode="normal" in2="BackgroundImageFix" result="effect1_dropShadow_0_2236"/>
<feBlend mode="normal" in="SourceGraphic" in2="effect1_dropShadow_0_2236" result="shape"/>
</filter>
</defs>
</svg>
